<?xml version="1.0"?>
<svg version="1.1" xmlns="http://www.w3.org/2000/svg" width="400px" height="200px" style="border: dashed 2px #aaa"><path fill="#1df56c" d="M113.912,128.728c0.056,0.952-0.224,1.512-1.288,1.512l-4.536,0c-1.176,0-1.4-0.56-1.456-1.848l-0.784-22.736l-0.112,0l-9.52,23.576c-0.336,0.896-0.896,1.008-1.512,1.008l-1.96,0c-0.84,0-1.344-0.168-1.736-1.064l-10.584-23.52l-0.112,0l-0.504,23.184c0,1.232-0.504,1.4-1.512,1.4l-3.808,0c-1.064,0-1.512-0.392-1.456-1.456l1.4-35.784c0.056-1.176,0.448-1.512,1.344-1.512l3.304,0c1.12,0,1.512,0.392,1.904,1.232l12.936,27.664l0.112,0l11.816-27.664c0.336-0.84,0.784-1.232,1.792-1.232l3.304,0c0.896,0,1.232,0.336,1.288,1.232z M150.116,116.632c0,8.064-4.928,14.28-13.664,14.28c-9.128,0-13.328-6.16-13.328-14.336c0-8.064,4.928-14.224,13.664-14.224c9.128,0,13.328,6.048,13.328,14.28z M143.116,116.632c0-4.592-1.456-8.96-6.384-8.96c-4.984,0-6.608,4.312-6.608,8.792c0,4.592,1.4,9.128,6.384,9.128c4.928,0,6.608-4.368,6.608-8.96z M183.24,128.784c0,0.952-0.336,1.456-1.344,1.456l-4.032,0c-1.008,0-1.344-0.504-1.344-1.456l0-15.232c0-3.08-0.84-5.264-4.256-5.264c-2.184,0-4.872,1.176-6.608,2.688l0,17.864c0,0.952-0.392,1.4-1.344,1.4l-4.088,0c-0.84,0-1.344-0.448-1.344-1.344l0-24.416c0-0.896,0.392-1.4,1.4-1.4l3.64,0c0.784,0,1.288,0.224,1.344,1.064l0.056,1.456c2.576-2.072,5.824-3.248,9.072-3.248c6.272,0,8.848,3.92,8.848,10.024l0,16.408z M217.372,116.576c0,1.344-0.448,1.624-1.848,1.624l-16.408,0c0.448,4.312,3.584,7.28,8.008,7.28c2.352,0,4.816-0.56,6.888-1.344c0.224-0.056,0.392-0.168,0.616-0.168c0.392,0,0.672,0.224,0.784,0.672l0.784,2.856c0.056,0.28,0.112,0.504,0.112,0.672c0,0.392-0.224,0.672-0.896,0.952c-2.744,1.232-6.496,1.792-9.408,1.792c-8.792,0-14-5.6-14-14.336c0-8.4,5.544-14.224,13.888-14.224c3.416,0,6.216,1.288,8.176,3.36c2.576,2.688,3.304,6.216,3.304,10.024l0,0.84z M210.708,113.776l0-0.616c-0.112-2.912-1.792-5.6-5.208-5.6c-3.64,0-5.824,2.912-6.272,6.216l11.48,0z M250.328,103.864c0,0.168-0.056,0.336-0.112,0.56l-11.032,29.008c-2.52,6.664-5.656,9.016-12.376,9.016c-1.064,0-2.016-0.056-2.968-0.28c-0.616-0.112-0.84-0.448-0.84-0.952c0-0.168,0.056-0.28,0.056-0.504l0.392-2.912c0.112-0.728,0.392-1.008,1.008-1.008l0.336,0c0.672,0.056,1.344,0.168,1.904,0.168c3.472,0,4.928-1.232,6.048-3.864l1.064-2.52l-10.192-26.264c-0.056-0.168-0.112-0.28-0.112-0.448c0-0.448,0.336-0.784,0.84-0.784l5.376,0c0.784,0,1.176,0.392,1.4,0.952l6.216,18.536l5.88-18.2c0.28-0.896,0.728-1.288,1.68-1.288l4.536,0c0.56,0,0.896,0.336,0.896,0.784z M299.3,128.728c0.056,0.952-0.224,1.512-1.288,1.512l-4.536,0c-1.176,0-1.4-0.56-1.456-1.848l-0.784-22.736l-0.112,0l-9.52,23.576c-0.336,0.896-0.896,1.008-1.512,1.008l-1.96,0c-0.84,0-1.344-0.168-1.736-1.064l-10.584-23.52l-0.112,0l-0.504,23.184c0,1.232-0.504,1.4-1.512,1.4l-3.808,0c-1.064,0-1.512-0.392-1.456-1.456l1.4-35.784c0.056-1.176,0.448-1.512,1.344-1.512l3.304,0c1.12,0,1.512,0.392,1.904,1.232l12.936,27.664l0.112,0l11.816-27.664c0.336-0.84,0.784-1.232,1.792-1.232l3.304,0c0.896,0,1.232,0.336,1.288,1.232z M336.512,129.176c0,0.672-0.448,1.064-1.12,1.064l-2.688,0c-2.912,0-4.2-1.4-4.592-3.304l-0.112,0c-1.4,2.072-5.04,3.976-8.12,3.976c-7.896,0-11.48-6.496-11.48-13.776c0-9.688,5.824-14.784,12.096-14.784c2.968,0,5.768,1.344,7.168,3.248l0.112-1.512c0.056-0.616,0.504-1.008,1.176-1.008l3.92,0c0.728,0,1.176,0.392,1.176,1.232l0,19.432c0,0.784,0.112,1.344,0.336,1.624c0.168,0.168,0.392,0.224,0.672,0.224l0.448,0c0.672,0,1.008,0.224,1.008,0.952l0,2.632z M327.272,121.56l0-10.808c-1.12-1.624-3.416-2.856-5.544-2.856c-3.416,0-6.328,2.912-6.328,8.792c0,4.704,1.792,8.68,5.936,8.68c2.744,0,5.096-2.072,5.936-3.808z M370.476,116.296c0,4.256-1.288,8.12-3.64,10.864c-2.072,2.352-4.984,3.808-8.624,3.808c-2.576,0-5.152-0.952-6.776-2.632l0,12.544c0,1.12-0.504,1.456-1.456,1.456l-3.92,0c-0.896,0-1.344-0.504-1.344-1.456l0-36.512c0-0.952,0.448-1.288,1.344-1.288l3.36,0c0.952,0,1.456,0.224,1.512,1.064l0.056,1.512c1.624-1.848,4.816-3.248,7.84-3.248c3.696,0,6.272,1.4,8.12,3.416c2.408,2.632,3.528,6.552,3.528,10.472z M363.42,116.632c0-2.632-0.504-4.928-1.624-6.496c-1.064-1.512-2.632-2.296-4.592-2.296c-2.072,0-4.648,1.344-5.768,2.744l0,12.208c1.12,1.512,3.36,2.744,5.488,2.744c1.96,0,3.528-0.896,4.48-2.072c1.4-1.736,2.016-4.088,2.016-6.832z"/><path fill="#" d=""/></svg>
